name GIL01_slow3.mot
datacolumns 153
datarows 4
range 0.20833339 0.23333338
endheader

                time	           pelvis_tx	           pelvis_ty	           pelvis_tz	         pelvis_tilt	         pelvis_list	     pelvis_rotation	       hip_flexion_r	     hip_adduction_r	      hip_rotation_r	        knee_angle_r	       ankle_angle_r	    subtalar_angle_r	         mtp_angle_r	       hip_flexion_l	     hip_adduction_l	      hip_rotation_l	        knee_angle_l	       ankle_angle_l	    subtalar_angle_l	         mtp_angle_l	    lumbar_extension	      lumbar_bending	     lumbar_rotation	     ground_force_vx	     ground_force_vy	     ground_force_vz	     ground_force_px	     ground_force_py	     ground_force_pz	     ground_force_vx	     ground_force_vy	     ground_force_vz	     ground_force_px	     ground_force_py	     ground_force_pz	     ground_torque_x	     ground_torque_y	     ground_torque_z	     ground_torque_x	     ground_torque_y	     ground_torque_z	    ground_marker_px	    ground_marker_py	    ground_marker_pz	    ground_marker_px	    ground_marker_py	    ground_marker_pz	    ground_marker_px	    ground_marker_py	    ground_marker_pz	    ground_marker_px	    ground_marker_py	    ground_marker_pz	    ground_marker_px	    ground_marker_py	    ground_marker_pz	    ground_marker_px	    ground_marker_py	    ground_marker_pz	    ground_marker_px	    ground_marker_py	    ground_marker_pz	    ground_marker_px	    ground_marker_py	    ground_marker_pz	    ground_marker_px	    ground_marker_py	    ground_marker_pz	    ground_marker_px	    ground_marker_py	    ground_marker_pz	    ground_marker_px	    ground_marker_py	    ground_marker_pz	    ground_marker_px	    ground_marker_py	    ground_marker_pz	    ground_marker_px	    ground_marker_py	    ground_marker_pz	    ground_marker_px	    ground_marker_py	    ground_marker_pz	    ground_marker_px	    ground_marker_py	    ground_marker_pz	    ground_marker_px	    ground_marker_py	    ground_marker_pz	    ground_marker_px	    ground_marker_py	    ground_marker_pz	    ground_marker_px	    ground_marker_py	    ground_marker_pz	    ground_marker_px	    ground_marker_py	    ground_marker_pz	    ground_marker_px	    ground_marker_py	    ground_marker_pz	    ground_marker_px	    ground_marker_py	    ground_marker_pz	    ground_marker_px	    ground_marker_py	    ground_marker_pz	    ground_marker_px	    ground_marker_py	    ground_marker_pz	    ground_marker_px	    ground_marker_py	    ground_marker_pz	    ground_marker_px	    ground_marker_py	    ground_marker_pz	    ground_marker_px	    ground_marker_py	    ground_marker_pz	    ground_marker_px	    ground_marker_py	    ground_marker_pz	    ground_marker_px	    ground_marker_py	    ground_marker_pz	    ground_marker_px	    ground_marker_py	    ground_marker_pz	    ground_marker_px	    ground_marker_py	    ground_marker_pz	    ground_marker_px	    ground_marker_py	    ground_marker_pz	    ground_marker_px	    ground_marker_py	    ground_marker_pz	    ground_marker_px	    ground_marker_py	    ground_marker_pz	    ground_marker_px	    ground_marker_py	    ground_marker_pz	    ground_marker_px	    ground_marker_py	    ground_marker_pz	    ground_marker_px	    ground_marker_py	    ground_marker_pz	    ground_marker_px	    ground_marker_py	    ground_marker_pz	
          0.20833339	         -0.92575908	          0.80906558	          0.26018739	          1.76040363	          6.02376509	         -3.01536751	        -12.86240101	         -9.03043652	        -16.50725555	        -27.41689491	         -7.81015396	          0.00000000	          0.00000000	          1.08537197	          6.95628548	         -7.85956192	         11.93476677	         -7.44984674	          0.00000000	          0.00000000	         -5.43907785	         -2.01113629	         10.43709660	          0.00000000	          0.00000000	          0.00000000	         -0.54976059	          0.00000000	          0.22905600	        -45.73083526	        371.90030451	         19.12163409	         -0.89079077	          0.00000000	          0.21203596	          0.00000000	          0.00000000	          0.00000000	          0.00000000	          0.26366113	          0.00000000	         -0.97224033	          0.74345642	          0.25374556	         -0.99585527	          0.73036760	          0.31339785	         -0.98668176	          0.74258798	          0.18398133	         -1.06434727	          0.39566436	          0.33100542	         -0.97344160	          0.42148244	          0.19381033	         -1.27627838	          0.12732878	          0.30901402	         -0.88363940	          0.07020200	          0.20617802	         -0.92575908	          0.80906558	          0.26018739	         -0.93296444	          0.79946715	          0.36183694	         -0.91855377	          0.81866407	          0.15853783	         -1.08465803	          0.83739412	          0.28590429	         -1.08430207	          0.83842224	          0.23128320	         -1.08172667	          0.40194595	          0.38280791	         -0.97676641	          0.41968116	          0.13944168	         -1.03281951	          0.38872427	          0.29208288	         -0.96557295	          0.39852130	          0.23475419	         -1.29321158	          0.13810669	          0.34068972	         -0.89375603	          0.06637001	          0.17079484	         -1.26485181	          0.12581392	          0.28733322	         -0.87624305	          0.07829709	          0.23379177	         -1.10494590	          1.20142162	          0.26598784	         -0.98732108	          1.15529788	          0.29403210	         -0.99585450	          1.16051936	          0.21929815	         -1.00612044	          1.15495396	          0.25671062	         -0.96851093	          1.07690907	          0.24938981	         -0.97517002	          0.51603508	          0.46337718	         -0.82828069	          0.55038655	          0.17370084	         -1.02495456	          0.57256651	          0.40444040	         -0.90073246	          0.60812581	          0.14316754	         -1.03314888	          0.48585236	          0.39549986	         -0.90651602	          0.52263230	          0.14667113	         -1.25748336	          0.24722435	          0.41572118	         -0.91648632	          0.18940407	          0.08949380	         -1.25409877	          0.20599991	          0.34409472	         -0.91705811	          0.15147637	          0.16435522	         -1.24128067	          0.04641071	          0.35296482	         -0.77822292	          0.05090684	          0.18919230	
          0.21666671	         -0.92041731	          0.80944037	          0.25863600	          1.85343552	          6.00094223	         -2.95159054	        -12.25878429	         -9.40585327	        -16.52545357	        -28.85755730	         -8.89902782	          0.00000000	          0.00000000	          0.41413021	          7.09750986	         -8.07926750	         12.17410851	         -7.21198988	          0.00000000	          0.00000000	         -5.64449596	         -1.87787724	         10.13258266	          0.00000000	          0.00000000	          0.00000000	         -0.54764761	          0.00000000	          0.22901733	        -44.28724987	        383.58630795	         17.98899213	         -0.89037518	          0.00000000	          0.21151323	          0.00000000	          0.00000000	          0.00000000	          0.00000000	          0.35219678	          0.00000000	         -0.96685088	          0.74385142	          0.25160685	         -0.99031472	          0.73063099	          0.31194311	         -0.98131257	          0.74284178	          0.18251364	         -1.05477619	          0.39541399	          0.33210099	         -0.97129744	          0.42198557	          0.19289571	         -1.26912224	          0.13010751	          0.30897292	         -0.88347048	          0.06997211	          0.20551248	         -0.92041731	          0.80944037	          0.25863600	         -0.92748421	          0.79985464	          0.36024052	         -0.91335046	          0.81902605	          0.15703149	         -1.07943189	          0.83734822	          0.28447583	         -1.07914281	          0.83871138	          0.22985294	         -1.07217360	          0.40187287	          0.38387564	         -0.97496682	          0.42011261	          0.13855164	         -1.02322042	          0.38772678	          0.29357380	         -0.96468049	          0.39962053	          0.23387522	         -1.28607309	          0.14104682	          0.34058380	         -0.89395732	          0.06609151	          0.17024258	         -1.25766730	          0.12783240	          0.28751221	         -0.87618971	          0.07834216	          0.23314920	         -1.09943748	          1.20170140	          0.26414719	         -0.98220384	          1.15537441	          0.29251367	         -0.99043971	          1.16077161	          0.21768382	         -1.00085998	          1.15514565	          0.25508067	         -0.96336830	          1.07704532	          0.24774691	         -0.96687847	          0.51726162	          0.46377173	         -0.82464188	          0.54991639	          0.17160422	         -1.01732552	          0.57262063	          0.40422007	         -0.89689934	          0.60820603	          0.14164808	         -1.02459121	          0.48585263	          0.39609212	         -0.90425003	          0.52245843	          0.14522086	         -1.24960041	          0.24944521	          0.41579446	         -0.91678858	          0.18923175	          0.08875991	         -1.24600255	          0.20801228	          0.34421512	         -0.91700166	          0.15155686	          0.16380149	         -1.23701978	          0.04787823	          0.35321105	         -0.77822185	          0.05055373	          0.18875271	
          0.22500005	         -0.91523468	          0.80972970	          0.25724983	          1.91206837	          5.99742031	         -2.88353443	        -11.56913090	         -9.76698208	        -16.50431252	        -30.31812096	         -9.43294239	          0.00000000	          0.00000000	         -0.25189495	          7.23063326	         -8.19421196	         12.47158623	         -6.89955997	          0.00000000	          0.00000000	         -5.81879520	         -1.72434437	          9.81789207	          0.00000000	          0.00000000	          0.00000000	         -0.54538760	          0.00000000	          0.22901965	        -41.72867524	        394.61975579	         17.37544326	         -0.89004059	          0.00000000	          0.21093109	          0.00000000	          0.00000000	          0.00000000	          0.00000000	          0.43366919	          0.00000000	         -0.96127856	          0.74460685	          0.24958852	         -0.98497903	          0.73083234	          0.31062731	         -0.97614276	          0.74307245	          0.18118918	         -1.04509866	          0.39512011	          0.33315298	         -0.96950060	          0.42244709	          0.19198358	         -1.26162028	          0.13280798	          0.30872750	         -0.88346678	          0.06974718	          0.20482078	         -0.91523468	          0.80972970	          0.25724983	         -0.92216712	          0.80012673	          0.35880026	         -0.90830225	          0.81933260	          0.15569943	         -1.07434809	          0.83726823	          0.28313339	         -1.07404828	          0.83905554	          0.22853480	         -1.06249964	          0.40170911	          0.38491002	         -0.97341847	          0.42053697	          0.13765816	         -1.01356244	          0.38666266	          0.29499283	         -0.96550912	          0.40074661	          0.23252858	         -1.27856112	          0.14385098	          0.34030768	         -0.89430803	          0.06582303	          0.16966303	         -1.25024104	          0.12984113	          0.28730950	         -0.87628305	          0.07842463	          0.23240499	         -1.09410465	          1.20193434	          0.26213524	         -0.97726679	          1.15537083	          0.29105797	         -0.98518836	          1.16099334	          0.21611027	         -0.99577117	          1.15528286	          0.25349715	         -0.95839906	          1.07713032	          0.24610938	         -0.95855397	          0.51840121	          0.46414149	         -0.82122898	          0.54933906	          0.16982944	         -1.00987327	          0.57254887	          0.40403014	         -0.89320576	          0.60820323	          0.14037451	         -1.01605642	          0.48566359	          0.39666292	         -0.90274799	          0.52196854	          0.14378005	         -1.24138069	          0.25136334	          0.41577712	         -0.91728055	          0.18909556	          0.08801259	         -1.23771775	          0.20987429	          0.34418052	         -0.91727585	          0.15163653	          0.16321312	         -1.23180723	          0.04985792	          0.35388598	         -0.77834558	          0.05040016	          0.18828435	
          0.23333338	         -0.91021144	          0.80996448	          0.25598717	          1.94468594	          5.99853468	         -2.81243134	        -10.80132771	        -10.09710693	        -16.44735336	        -31.78958130	         -9.32547569	          0.00000000	          0.00000000	         -0.90507507	          7.34282732	         -8.23230743	         12.80455112	         -6.55149317	          0.00000000	          0.00000000	         -5.84621763	         -1.55865014	          9.53268242	          0.00000000	          0.00000000	          0.00000000	         -0.54302332	          0.00000000	          0.22905270	        -38.31733069	        403.32198111	         17.68218391	         -0.88980981	          0.00000000	          0.21031009	          0.00000000	          0.00000000	          0.00000000	          0.00000000	          0.48175977	          0.00000000	         -0.95601481	          0.74516833	          0.24767190	         -0.97983581	          0.73100591	          0.30943051	         -0.97116506	          0.74328256	          0.17998466	         -1.03529370	          0.39483845	          0.33412519	         -0.96795112	          0.42287609	          0.19106433	         -1.25377536	          0.13539490	          0.30828708	         -0.88356376	          0.06953017	          0.20407800	         -0.91021144	          0.80996448	          0.25598717	         -0.91700947	          0.80033940	          0.35747471	         -0.90341341	          0.81958956	          0.15449964	         -1.06941140	          0.83718812	          0.28187224	         -1.06905806	          0.83943754	          0.22729218	         -1.05268776	          0.40150940	          0.38587406	         -0.97204792	          0.42095691	          0.13675243	         -1.00349021	          0.38573694	          0.29607317	         -0.96454811	          0.40145847	          0.23150596	         -1.27069175	          0.14649604	          0.33986005	         -0.89475578	          0.06556661	          0.16903476	         -1.24236572	          0.13192086	          0.28692535	         -0.87643766	          0.07853574	          0.23154938	         -1.08919823	          1.20210099	          0.25991559	         -0.97239238	          1.15540874	          0.28965816	         -0.98002607	          1.16124606	          0.21466242	         -0.99075228	          1.15542805	          0.25200853	         -0.95334876	          1.07729769	          0.24454457	         -0.95018613	          0.51948440	          0.46447641	         -0.81799412	          0.54868734	          0.16828763	         -1.00234783	          0.57239646	          0.40391365	         -0.88972849	          0.60809529	          0.13922657	         -1.00733936	          0.48530552	          0.39710081	         -0.90054607	          0.52175957	          0.14257291	         -1.23284745	          0.25304770	          0.41565251	         -0.91791958	          0.18898013	          0.08723719	         -1.22918427	          0.21162599	          0.34390405	         -0.91770452	          0.15175039	          0.16253500	         -1.22550631	          0.05237150	          0.35508293	         -0.77857405	          0.05037006	          0.18775225	
